<?xml version="1.0" encoding="iso-8859-1"?>
<!-- Uploaded to: SVG Repo, www.svgrepo.com, Generator: SVG Repo Mixer Tools -->
<svg fill="#ffffff" height="800px" width="800px" version="1.1" id="Layer_1" xmlns="http://www.w3.org/2000/svg" xmlns:xlink="http://www.w3.org/1999/xlink" 
	 viewBox="0 0 512 512" xml:space="preserve">
<g>
	<g>
		<path d="M507.11,440.328l-61.893-61.893V100.174V16.696c0-9.22-7.475-16.696-16.696-16.696h-83.478H16.696
			C7.475,0,0,7.475,0,16.696v66.783c0,9.22,7.475,16.696,16.696,16.696h116.87v58.375l-52.762,78.955
			c-1.804,2.7-3.456,5.512-4.941,8.422c-5.806,11.373-9.08,24.254-9.08,37.9c0,46.104,37.374,83.478,83.478,83.478
			s83.478-37.374,83.478-83.478c0-13.646-3.273-26.527-9.079-37.901c-1.486-2.911-3.138-5.721-4.942-8.422l-52.762-78.954v-58.375
			h54.304l123.783,123.783v154.478l-61.893,61.893c-3.131,3.131-4.89,7.377-4.89,11.805v43.172c0,9.22,7.475,16.696,16.696,16.696
			h200.348c9.22,0,16.696-7.475,16.696-16.696v-43.172C512,447.705,510.241,443.459,507.11,440.328z M191.957,256.06
			c1.076,1.614,2.07,3.299,2.956,5.043c3.608,7.06,5.435,14.701,5.435,22.723c0,27.619-22.468,50.087-50.087,50.087
			c-27.619,0-50.087-22.468-50.087-50.087c0-8.022,1.826-15.663,5.429-22.712c0.892-1.755,1.885-3.44,2.967-5.06l41.69-62.392
			L191.957,256.06z M33.391,66.783V33.391h378.435v345.043h-33.391V83.478c0-9.22-7.475-16.696-16.696-16.696H33.391z
			 M268.478,100.174h76.565v76.565L268.478,100.174z M478.609,478.609H311.652v-19.56l47.223-47.223h72.51l47.223,47.223V478.609z"
			/>
	</g>
</g>
</svg>